<svg xmlns="http://www.w3.org/2000/svg" viewBox="0 0 1200 900">
  <defs>
    <linearGradient id="bg" x1="0" x2="1" y1="0" y2="1">
      <stop stop-color="#f1fdff"/>
      <stop offset=".55" stop-color="#ff66c4"/>
      <stop offset="1" stop-color="#ffffff"/>
    </linearGradient>
    <filter id="shadow" x="-20%" y="-20%" width="140%" height="140%">
      <feDropShadow dx="0" dy="22" stdDeviation="28" flood-color="#006f82" flood-opacity=".24"/>
    </filter>
  </defs>
  <rect width="1200" height="900" fill="url(#bg)"/>
  <circle cx="180" cy="160" r="84" fill="#ff66c4" opacity=".32"/>
  <circle cx="1050" cy="170" r="120" fill="#f1fdff" opacity=".45"/>
  <ellipse cx="600" cy="670" rx="430" ry="115" fill="#006f82" opacity=".12"/>
  <g filter="url(#shadow)">
    <rect x="250" y="330" width="700" height="330" rx="42" fill="#f1fdff"/>
    <rect x="290" y="370" width="620" height="250" rx="28" fill="#f2cfd4"/>
    <g fill="#006f82">
      <circle cx="405" cy="480" r="58"/>
      <circle cx="535" cy="480" r="58"/>
      <circle cx="665" cy="480" r="58"/>
      <circle cx="795" cy="480" r="58"/>
    </g>
    <g fill="#ffffff" opacity=".9">
      <circle cx="385" cy="455" r="7"/>
      <circle cx="425" cy="505" r="6"/>
      <circle cx="520" cy="452" r="6"/>
      <circle cx="560" cy="500" r="7"/>
      <circle cx="648" cy="459" r="7"/>
      <circle cx="685" cy="508" r="6"/>
      <circle cx="776" cy="454" r="6"/>
      <circle cx="812" cy="502" r="7"/>
    </g>
  </g>
  <text x="600" y="250" text-anchor="middle" fill="#006f82" font-family="Arial, sans-serif" font-size="78" font-weight="700">Ibejinhos</text>
  <text x="600" y="728" text-anchor="middle" fill="#006f82" font-family="Arial, sans-serif" font-size="32">docinhos artesanais em Moema</text>
</svg>
